<?xml version="1.0" encoding="UTF-8"?>
<svg id="Layer_2" data-name="Layer 2" xmlns="http://www.w3.org/2000/svg" xmlns:xlink="http://www.w3.org/1999/xlink" viewBox="0 0 662.12 620.03">
  <defs>
    <style>
      .cls-1 {
        filter: url(#drop-shadow-1);
      }

      .cls-2 {
        fill: #594a42;
      }

      .cls-3 {
        fill: #fed8b9;
      }
    </style>
    <filter id="drop-shadow-1" x="-8.03" y="-8.1" width="692.16" height="650.16" filterUnits="userSpaceOnUse">
      <feOffset dx="7" dy="7"/>
      <feGaussianBlur result="blur" stdDeviation="5"/>
      <feFlood flood-color="#231f20" flood-opacity=".2"/>
      <feComposite in2="blur" operator="in"/>
      <feComposite in="SourceGraphic"/>
    </filter>
  </defs>
  <g id="Layer_1-2" data-name="Layer 1">
    <g id="ON5yDv.tif" class="cls-1">
      <g>
        <path class="cls-2" d="M293.58,416.09c-1.95-37.59,17.11-72.26,9.28-109.57-12.87-61.33-89.19-73.16-140.54-57.89-48.64,14.46-88.26,55.6-95.07,106.81-6.67,50.19,21.73,108.36,48.4,149.48,29.24,45.07,86.58,110.96,143.95,114.96,2.84.2,7.06.21,9.9,0,25.83-1.95,61.61-23.62,63.7-51.87,3.57-48.35-37-101.56-39.62-151.92ZM294.62,602.16c-43.96,19.24-85.1-7.58-116.38-36.74-43.75-40.77-93.11-116.56-101.09-176.54-9.55-71.84,47.78-132.48,118.22-136.05,32.12-1.62,76.38,7.47,92.28,38.75,16.72,32.88-.44,71.89-3.52,105.97-3.66,40.67,15.18,77.6,27.99,114.92,11.58,33.72,23.88,71.58-17.5,89.69Z"/>
        <path class="cls-2" d="M312.12,512.47c-12.81-37.32-31.65-74.25-27.99-114.92,3.08-34.08,20.24-73.09,3.52-105.97-15.9-31.28-60.16-40.37-92.28-38.75-70.44,3.57-127.77,64.21-118.22,136.05,7.98,59.98,57.34,135.77,101.09,176.54,31.28,29.16,72.42,55.98,116.38,36.74,41.38-18.11,29.08-55.97,17.5-89.69ZM139.2,490.83c-5.08-2.79-16.4-26.73-19.44-33.07-3.97-8.29-7.97-17.07-11.45-25.57-1.67-4.08-8.47-20.46-7.46-23.79.31-1.01,4.32-2.64,5.4-2.79,2.26-.32,2.34.77,3.35,2.49,7.26,12.36,10.4,28.44,17.35,41.62,4.43,8.4,16.88,25.64,18.04,34.04.54,3.93-.65,9.9-5.79,7.07Z"/>
        <path class="cls-2" d="M390.88.04c-.94-.06-2.07-.06-3.01,0-4.91.3-12.62,2.48-17.08,4.66-50.41,24.54-11.68,137.09,45.45,100.11C455.74,79.26,436.2,2.85,390.88.04ZM404.22,99.69c-45.52,18-68.56-83.45-18.6-88.76,42.3-4.49,59,72.78,18.6,88.76Z"/>
        <path class="cls-2" d="M404.22,99.69c-45.52,18-68.56-83.45-18.6-88.76,42.3-4.49,59,72.78,18.6,88.76Z"/>
        <path class="cls-2" d="M662.06,157.16c-2.07-33.62-52.01-23.59-49.52,11.43,2.17,30.51,47.87,23.35,49.52-7.13.07-1.33.08-2.97,0-4.3ZM643.51,174.97c-2.4,1.51-6.85,3.05-9.65,3.26-19.12,1.47-13.03-28.91,4.42-31.3,17.57-2.41,16.83,20.79,5.23,28.04Z"/>
        <path class="cls-2" d="M643.51,174.97c-2.4,1.51-6.85,3.05-9.65,3.26-19.12,1.47-13.03-28.91,4.42-31.3,17.57-2.41,16.83,20.79,5.23,28.04Z"/>
        <path class="cls-2" d="M596.71,180.1c-24.22-43.45-75.34-66.17-124.13-63.72-40.79,2.05-94.23,25.59-107.21,67.56-13.91,44.95,24.03,85.95,35.29,127.21,13.97,51.17-10.14,100.55-6.33,150.96,4.42,58.38,67.49,74.67,111.18,43.61,39.95-28.38,70.37-92.65,85.54-138.29,17.51-52.63,33.87-136.71,5.66-187.33ZM568.3,398.93c-16.24,37.91-48.36,96.88-90.57,109.15-36.22,10.53-71.1-7.91-73.5-47.25-2.99-48.9,19.1-100.89,7.1-149.15-12.29-49.42-67.07-102.17-20.67-150.65,19.96-20.86,55.16-33.4,83.64-34.74,51.63-2.41,108.59,28.35,122.64,80.28,15.3,56.55-5.96,139.39-28.64,192.36Z"/>
        <path class="cls-2" d="M568.3,398.93c-16.24,37.91-48.36,96.88-90.57,109.15-36.22,10.53-71.1-7.91-73.5-47.25-2.99-48.9,19.1-100.89,7.1-149.15-12.29-49.42-67.07-102.17-20.67-150.65,19.96-20.86,55.16-33.4,83.64-34.74,51.63-2.41,108.59,28.35,122.64,80.28,15.3,56.55-5.96,139.39-28.64,192.36Z"/>
        <path class="cls-2" d="M226.37,110.78c-27.14.55-43.17,30.17-41.67,54.76,1.96,32.04,32.22,70.66,66.68,50.33,42.7-25.19,26.15-106.13-25.01-105.09ZM228.45,210.47c-41.42-3.83-46.68-87.19-.8-89.35,47.56-2.23,52.48,94.13.8,89.35Z"/>
        <path class="cls-2" d="M228.45,210.47c-41.42-3.83-46.68-87.19-.8-89.35,47.56-2.23,52.48,94.13.8,89.35Z"/>
        <path class="cls-2" d="M483.34,8.34c-51.1,5.22-40.92,105.66,13.42,85.31,42.79-16.02,30.42-89.78-13.42-85.31ZM487.89,86.52c-36.87,3.72-37.02-65.01-2.4-68.27,34.11-3.21,37.62,64.71,2.4,68.27Z"/>
        <path class="cls-2" d="M487.89,86.52c-36.87,3.72-37.02-65.01-2.4-68.27,34.11-3.21,37.62,64.71,2.4,68.27Z"/>
        <path class="cls-2" d="M132.1,146.09c-52.6,4.02-31.71,96.88,19.03,85.31,43.52-9.92,27.66-88.88-19.03-85.31ZM157.55,217.16c-30.8,22.84-64.44-35.74-36.27-57.35,3.23-2.48,7.6-4.38,11.68-4.69,25.85-1.9,48.1,44.6,24.59,62.04Z"/>
        <path class="cls-2" d="M157.55,217.16c-30.8,22.84-64.44-35.74-36.27-57.35,3.23-2.48,7.6-4.38,11.68-4.69,25.85-1.9,48.1,44.6,24.59,62.04Z"/>
        <path class="cls-2" d="M558.66,40.2c-34.38,3.92-33.11,66.1,4.61,62.72,33.18-2.98,30.3-66.7-4.61-62.72ZM561.57,92.18c-23.63,1.66-21.93-39.94-1.62-42.08,21.7-2.28,23.19,40.56,1.62,42.08Z"/>
        <path class="cls-2" d="M561.57,92.18c-23.63,1.66-21.93-39.94-1.62-42.08,21.7-2.28,23.19,40.56,1.62,42.08Z"/>
        <path class="cls-2" d="M67.53,197.75c-35.34,3.34-22.26,69.58,15,60.62,31.65-7.62,19.4-63.88-15-60.62ZM81.82,247.76c-24.1,10.48-35.53-37.16-13.87-40.13,20.59-2.82,32.04,32.22,13.87,40.13Z"/>
        <path class="cls-2" d="M81.82,247.76c-24.1,10.48-35.53-37.16-13.87-40.13,20.59-2.82,32.04,32.22,13.87,40.13Z"/>
        <path class="cls-2" d="M50.38,332.59c-4.4-14.63-18.2-21.13-32.79-19.49-19.83,2.23-21.85,25.09-11.27,38.58,16.62,21.19,52.88,10.26,44.06-19.09ZM25.66,351.28c-15-1.39-24.3-25.51-5.92-27.86,1.62-.21,3.85-.25,5.47-.11,17.71,1.58,25.71,30.31.45,27.97Z"/>
        <path class="cls-2" d="M25.66,351.28c-15-1.39-24.3-25.51-5.92-27.86,1.62-.21,3.85-.25,5.47-.11,17.71,1.58,25.71,30.31.45,27.97Z"/>
        <path class="cls-2" d="M609.03,84.53c-31.86,3.24-31.65,56.58-.18,54.05,29.9-2.39,33.68-57.46.18-54.05ZM604.2,128.71c-3.72-.51-6.31-3.74-7.64-6.98-4.3-10.47.85-25.96,13.32-27.29,20.3-2.16,13.75,36.95-5.68,34.27Z"/>
        <path class="cls-2" d="M604.2,128.71c-3.72-.51-6.31-3.74-7.64-6.98-4.3-10.47.85-25.96,13.32-27.29,20.3-2.16,13.75,36.95-5.68,34.27Z"/>
        <path class="cls-2" d="M31.37,254.13c-29.11,2.91-17.52,50.47,6.75,52.41,40.37,3.22,28.29-55.9-6.75-52.41ZM49.13,293.84c-7.59,7.08-21.61-1.27-24.24-9.8-2.54-8.2,1.74-19.78,11.23-20.46,13.21-.96,23.09,20.86,13.01,30.26Z"/>
        <path class="cls-2" d="M49.13,293.84c-7.59,7.08-21.61-1.27-24.24-9.8-2.54-8.2,1.74-19.78,11.23-20.46,13.21-.96,23.09,20.86,13.01,30.26Z"/>
        <path class="cls-3" d="M139.2,490.83c-5.08-2.79-16.4-26.73-19.44-33.07-3.97-8.29-7.97-17.07-11.45-25.57-1.67-4.08-8.47-20.46-7.46-23.79.31-1.01,4.32-2.64,5.4-2.79,2.26-.32,2.34.77,3.35,2.49,7.26,12.36,10.4,28.44,17.35,41.62,4.43,8.4,16.88,25.64,18.04,34.04.54,3.93-.65,9.9-5.79,7.07Z"/>
      </g>
    </g>
  </g>
</svg>